<?xml version="1.0" encoding="UTF-8"?>
<svg id="uuid-3610b16c-c61f-4ee8-8a5f-3c83a33f0a55" data-name="レイヤー 1" xmlns="http://www.w3.org/2000/svg" xmlns:xlink="http://www.w3.org/1999/xlink" viewBox="0 0 872.53 216.97">
  <defs>
    <linearGradient id="uuid-538a6759-30d1-40fd-b337-da77aba3cab8" data-name="名称未設定グラデーション 82" x1="227.93" y1="227.93" x2="-5.32" y2="-5.32" gradientUnits="userSpaceOnUse">
      <stop offset=".25" stop-color="#e60012"/>
      <stop offset=".81" stop-color="#e61e65"/>
    </linearGradient>
  </defs>
  <g>
    <path d="M287.89,146.39c-7.47,0-13.7-1.77-18.7-5.3-5-3.53-8.57-8.77-10.7-15.7-.07-.13-.1-.33-.1-.6,0-.53.33-.9,1-1.1l11.3-2.7c.13-.07.3-.1.5-.1.6,0,1,.33,1.2,1,1.47,3.53,3.4,6.12,5.8,7.75,2.4,1.63,5.63,2.45,9.7,2.45s6.98-.65,9.35-1.95c2.37-1.3,3.55-3.45,3.55-6.45s-1.15-5.27-3.45-7c-2.3-1.73-5.48-3.33-9.55-4.8l-7-2.5c-6.4-2.2-11.4-5.18-15-8.95-3.6-3.77-5.4-8.52-5.4-14.25,0-3.27.68-6.27,2.05-9,1.37-2.73,3.25-5.08,5.65-7.05,2.4-1.97,5.22-3.5,8.45-4.6,3.23-1.1,6.75-1.65,10.55-1.65,6.67,0,12.37,1.57,17.1,4.7,4.73,3.13,8.1,8.03,10.1,14.7.07.13.1.33.1.6,0,.53-.33.9-1,1.1l-11.9,3c-.13.07-.33.1-.6.1-.47,0-.87-.33-1.2-1-1.33-3.27-3.02-5.57-5.05-6.9-2.03-1.33-4.55-2-7.55-2-3.53,0-6.33.68-8.4,2.05-2.07,1.37-3.1,3.22-3.1,5.55,0,2.47,1.07,4.58,3.2,6.35,2.13,1.77,5.53,3.42,10.2,4.95l5.6,1.9c7.2,2.33,12.57,5.4,16.1,9.2,3.53,3.8,5.3,8.97,5.3,15.5,0,3.27-.68,6.3-2.05,9.1-1.37,2.8-3.29,5.2-5.75,7.2-2.47,2-5.43,3.57-8.9,4.7-3.47,1.13-7.27,1.7-11.4,1.7Z"/>
    <path d="M347.41,145.99c-6.07,0-10.72-1.88-13.95-5.65-3.23-3.77-4.85-9.48-4.85-17.15v-21.8h-8.2c-.93,0-1.4-.47-1.4-1.4v-9.8c0-.93.47-1.4,1.4-1.4h8.2v-15.1c0-.93.47-1.4,1.4-1.4h11.3c.93,0,1.4.47,1.4,1.4v15.1h13.3c.93,0,1.4.47,1.4,1.4v9.8c0,.93-.47,1.4-1.4,1.4h-13.3v22.7c0,3.07.5,5.35,1.5,6.85s2.6,2.25,4.8,2.25c1.73,0,3.13-.9,4.2-2.7.47-.87,1.1-1.1,1.9-.7l8.5,3.8c.53.33.8.73.8,1.2,0,.4-.13.77-.4,1.1-2,3.73-4.47,6.35-7.4,7.85s-6,2.25-9.2,2.25Z"/>
    <path d="M396.58,145.99c-4.47,0-8.53-.72-12.2-2.15-3.67-1.43-6.8-3.43-9.4-6s-4.6-5.63-6-9.2c-1.4-3.57-2.1-7.48-2.1-11.75s.7-8.18,2.1-11.75c1.4-3.57,3.4-6.65,6-9.25,2.6-2.6,5.73-4.62,9.4-6.05,3.67-1.43,7.73-2.15,12.2-2.15s8.62.72,12.25,2.15c3.63,1.43,6.75,3.45,9.35,6.05s4.6,5.68,6,9.25c1.4,3.57,2.1,7.48,2.1,11.75s-.7,8.18-2.1,11.75c-1.4,3.57-3.4,6.63-6,9.2-2.6,2.57-5.72,4.57-9.35,6-3.63,1.43-7.72,2.15-12.25,2.15ZM396.58,133.19c2.27,0,4.33-.4,6.2-1.2,1.87-.8,3.47-1.92,4.8-3.35,1.33-1.43,2.37-3.15,3.1-5.15.73-2,1.1-4.2,1.1-6.6s-.37-4.62-1.1-6.65c-.73-2.03-1.77-3.77-3.1-5.2-1.33-1.43-2.93-2.55-4.8-3.35-1.87-.8-3.93-1.2-6.2-1.2s-4.33.4-6.2,1.2c-1.87.8-3.47,1.92-4.8,3.35-1.33,1.43-2.37,3.17-3.1,5.2-.73,2.03-1.1,4.25-1.1,6.65s.37,4.6,1.1,6.6c.73,2,1.77,3.72,3.1,5.15,1.33,1.43,2.93,2.55,4.8,3.35,1.87.8,3.93,1.2,6.2,1.2Z"/>
    <path d="M437.03,144.89c-.93,0-1.4-.47-1.4-1.4v-53.3c0-.93.47-1.4,1.4-1.4h10.2c.4,0,.75.1,1.05.3.3.2.45.57.45,1.1l.3,7c1.93-3,4.42-5.28,7.45-6.85,3.03-1.57,6.25-2.35,9.65-2.35.8,0,1.5.03,2.1.1.6.07,1.17.17,1.7.3.8.2,1.2.7,1.2,1.5v11.1c0,.8-.4,1.2-1.2,1.2-.73,0-1.55-.07-2.45-.2-.9-.13-1.92-.2-3.05-.2-1.87,0-3.7.32-5.5.95-1.8.63-3.38,1.55-4.75,2.75-1.37,1.2-2.47,2.68-3.3,4.45-.83,1.77-1.25,3.75-1.25,5.95v27.6c0,.93-.47,1.4-1.4,1.4h-11.2Z"/>
    <path d="M489.29,168.49c-1.07,0-1.43-.53-1.1-1.6l10.3-25.6-22.5-50.9c-.13-.27-.2-.5-.2-.7,0-.6.43-.9,1.3-.9h13.4c.8,0,1.33.37,1.6,1.1l13.7,34.4,13.3-34.4c.27-.73.8-1.1,1.6-1.1h12.4c.47,0,.82.15,1.05.45.23.3.22.68-.05,1.15l-31.4,77c-.27.73-.8,1.1-1.6,1.1h-11.8Z"/>
    <path d="M560.25,144.89c-.87,0-1.4-.37-1.6-1.1l-19.6-53.4c-.07-.13-.1-.3-.1-.5,0-.73.43-1.1,1.3-1.1h13.5c.8,0,1.3.4,1.5,1.2l9.5,31,13.2-31.1c.33-.73.87-1.1,1.6-1.1h7.1c.8,0,1.37.37,1.7,1.1l12.4,30.3,10.1-30.2c.2-.8.73-1.2,1.6-1.2h12.3c.53,0,.92.15,1.15.45.23.3.25.68.05,1.15l-19.6,53.4c-.2.73-.73,1.1-1.6,1.1h-7.1c-.73,0-1.3-.37-1.7-1.1l-13.1-32-13.8,32c-.4.73-.97,1.1-1.7,1.1h-7.1Z"/>
    <path d="M634.45,144.89c-.93,0-1.4-.47-1.4-1.4v-53.3c0-.93.46-1.4,1.4-1.4h10.2c.4,0,.75.1,1.05.3.3.2.45.57.45,1.1l.3,7c1.93-3,4.42-5.28,7.45-6.85,3.03-1.57,6.25-2.35,9.65-2.35.8,0,1.5.03,2.1.1.6.07,1.17.17,1.7.3.8.2,1.2.7,1.2,1.5v11.1c0,.8-.4,1.2-1.2,1.2-.73,0-1.55-.07-2.45-.2-.9-.13-1.92-.2-3.05-.2-1.87,0-3.7.32-5.5.95-1.8.63-3.38,1.55-4.75,2.75-1.37,1.2-2.47,2.68-3.3,4.45-.83,1.77-1.25,3.75-1.25,5.95v27.6c0,.93-.47,1.4-1.4,1.4h-11.2Z"/>
    <path d="M682.55,78.79c-2.33,0-4.29-.72-5.85-2.15-1.57-1.43-2.35-3.32-2.35-5.65s.78-4.22,2.35-5.65c1.57-1.43,3.52-2.15,5.85-2.15s4.28.72,5.85,2.15c1.57,1.43,2.35,3.32,2.35,5.65s-.78,4.22-2.35,5.65c-1.57,1.43-3.52,2.15-5.85,2.15ZM676.95,144.89c-.93,0-1.4-.47-1.4-1.4v-53.3c0-.93.46-1.4,1.4-1.4h11.2c.93,0,1.4.47,1.4,1.4v53.3c0,.93-.47,1.4-1.4,1.4h-11.2Z"/>
    <path d="M727.28,169.59c-6,0-11.42-1.35-16.25-4.05-4.83-2.7-8.35-6.72-10.55-12.05-.13-.4-.2-.63-.2-.7,0-.53.33-.9,1-1.1l9.1-3.3c.27-.13.47-.2.6-.2.47,0,.87.3,1.2.9,1.33,2.33,3.15,4.2,5.45,5.6s5.35,2.1,9.15,2.1c2.2,0,4.27-.25,6.2-.75s3.63-1.28,5.1-2.35c1.47-1.07,2.63-2.47,3.5-4.2.87-1.73,1.3-3.83,1.3-6.3v-5.1c-2.07,2.53-4.6,4.48-7.6,5.85-3,1.37-6.37,2.05-10.1,2.05-4,0-7.62-.72-10.85-2.15-3.23-1.43-5.98-3.42-8.25-5.95-2.27-2.53-4.02-5.6-5.25-9.2-1.23-3.6-1.85-7.53-1.85-11.8s.62-8.28,1.85-11.85c1.23-3.57,2.98-6.63,5.25-9.2,2.27-2.57,5.02-4.57,8.25-6,3.23-1.43,6.85-2.15,10.85-2.15s7.47.77,10.6,2.3c3.13,1.53,5.7,3.7,7.7,6.5l.4-6.3c0-.93.5-1.4,1.5-1.4h10.1c1,0,1.5.47,1.5,1.4v51.6c0,4.47-.72,8.42-2.15,11.85-1.43,3.43-3.47,6.33-6.1,8.7-2.63,2.37-5.77,4.17-9.4,5.4-3.63,1.23-7.65,1.85-12.05,1.85ZM728.68,133.19c2.27,0,4.33-.4,6.2-1.2,1.87-.8,3.47-1.92,4.8-3.35,1.33-1.43,2.37-3.15,3.1-5.15.73-2,1.1-4.2,1.1-6.6s-.37-4.62-1.1-6.65c-.73-2.03-1.77-3.77-3.1-5.2-1.33-1.43-2.93-2.55-4.8-3.35-1.87-.8-3.93-1.2-6.2-1.2s-4.33.4-6.2,1.2c-1.87.8-3.47,1.92-4.8,3.35-1.33,1.43-2.37,3.17-3.1,5.2-.73,2.03-1.1,4.25-1.1,6.65s.37,4.6,1.1,6.6c.73,2,1.77,3.72,3.1,5.15,1.33,1.43,2.93,2.55,4.8,3.35,1.87.8,3.93,1.2,6.2,1.2Z"/>
    <path d="M770.57,144.89c-.93,0-1.4-.47-1.4-1.4v-78.4c0-.93.46-1.4,1.4-1.4h11.2c.93,0,1.4.47,1.4,1.4v30.6c2.13-2.73,4.77-4.75,7.9-6.05,3.13-1.3,6.4-1.95,9.8-1.95,6.53,0,11.58,1.83,15.15,5.5,3.57,3.67,5.35,8.73,5.35,15.2v35.1c0,.93-.47,1.4-1.4,1.4h-11.3c-.93,0-1.4-.47-1.4-1.4v-29.4c0-4.67-.87-8.1-2.6-10.3-1.73-2.2-4.43-3.3-8.1-3.3-1.73,0-3.4.32-5,.95-1.6.63-3.03,1.6-4.3,2.9-1.27,1.3-2.27,2.95-3,4.95-.73,2-1.1,4.33-1.1,7v27.2c0,.93-.47,1.4-1.4,1.4h-11.2Z"/>
    <path d="M855.53,145.99c-6.07,0-10.72-1.88-13.95-5.65-3.23-3.77-4.85-9.48-4.85-17.15v-21.8h-8.2c-.93,0-1.4-.47-1.4-1.4v-9.8c0-.93.47-1.4,1.4-1.4h8.2v-15.1c0-.93.46-1.4,1.4-1.4h11.3c.93,0,1.4.47,1.4,1.4v15.1h13.3c.93,0,1.4.47,1.4,1.4v9.8c0,.93-.47,1.4-1.4,1.4h-13.3v22.7c0,3.07.5,5.35,1.5,6.85s2.6,2.25,4.8,2.25c1.73,0,3.13-.9,4.2-2.7.47-.87,1.1-1.1,1.9-.7l8.5,3.8c.53.33.8.73.8,1.2,0,.4-.13.77-.4,1.1-2,3.73-4.47,6.35-7.4,7.85-2.93,1.5-6,2.25-9.2,2.25Z"/>
  </g>
  <path d="M180.54,72.32h-12.74c-4.88,0-9.45-2.22-12.61-5.93-1.41-1.66-2.95-3.2-4.6-4.6-3.72-3.16-5.93-7.73-5.93-12.61v-12.74c0-20.12-16.31-36.43-36.43-36.43H36.43C16.31,0,0,16.31,0,36.43v71.78c0,20.12,16.31,36.43,36.43,36.43h12.74c4.88,0,9.45,2.22,12.61,5.93,1.41,1.66,2.95,3.2,4.6,4.6,3.72,3.16,5.93,7.73,5.93,12.61v12.74c0,20.12,16.31,36.43,36.43,36.43h71.78c20.12,0,36.43-16.31,36.43-36.43v-71.78c0-20.12-16.31-36.43-36.43-36.43ZM75.17,58.98c1.3.9,3,1.6,6.3,3l4.5,1.9c2.6,1.1,5.7,2.8,8.3,5.6,3,3.2,4.1,6.3,4.1,10.7,0,7.3-2.8,14.1-7.1,18.2-5.5,5.3-12.7,6.3-18.2,6.3-5.1,0-9.4-1-13.7-3.8-3.4-2.2-6.4-5.6-8.5-8.8l9.5-8.1c1,1.9,2.9,4.6,4.7,6.1,2.6,2.2,5.4,2.8,8.4,2.8,2.6,0,6.1-.4,8.7-3.3,1.4-1.5,2.5-3.7,2.5-6.9,0-2.4-.8-4.3-3-6.1s-4.2-2.2-6.8-3.3l-3.8-1.6c-4.2-1.8-6.6-3.4-8.1-4.9-3.5-3.4-4.1-7.5-4.1-11,0-5.2,1.5-10.2,5.7-14.4,5.4-5.4,12.2-6.4,18.1-6.4,4.3,0,11.7.7,18,7.8l-7.9,8.9c-1.8-2.7-5.2-5.7-10.7-5.7-3.6,0-5.8,1.1-7.1,2.3-1.6,1.4-2.6,3.3-2.6,5.6s.9,3.8,2.8,5.1Z" style="fill: url(#uuid-538a6759-30d1-40fd-b337-da77aba3cab8);"/>
</svg>